<svg width="32" height="33" viewBox="0 0 32 33" fill="none" xmlns="http://www.w3.org/2000/svg">
<path d="M0 16.8887C0 8.05212 7.16344 0.888672 16 0.888672C24.8366 0.888672 32 8.05212 32 16.8887C32 25.7252 24.8366 32.8887 16 32.8887C7.16344 32.8887 0 25.7252 0 16.8887Z" fill="#009E3D"/>
<g clip-path="url(#clip0)">
<path d="M10 19.8887C11.6569 19.8887 13 18.5455 13 16.8887C13 15.2318 11.6569 13.8887 10 13.8887C8.34315 13.8887 7 15.2318 7 16.8887C7 18.5455 8.34315 19.8887 10 19.8887Z" stroke="#F5F7F7" stroke-width="2" stroke-linecap="round" stroke-linejoin="round"/>
<path d="M20.5 26.6387C22.1569 26.6387 23.5 25.2955 23.5 23.6387C23.5 21.9818 22.1569 20.6387 20.5 20.6387C18.8431 20.6387 17.5 21.9818 17.5 23.6387C17.5 25.2955 18.8431 26.6387 20.5 26.6387Z" stroke="#F5F7F7" stroke-width="2" stroke-linecap="round" stroke-linejoin="round"/>
<path d="M20.5 13.1387C22.1569 13.1387 23.5 11.7955 23.5 10.1387C23.5 8.48182 22.1569 7.13867 20.5 7.13867C18.8431 7.13867 17.5 8.48182 17.5 10.1387C17.5 11.7955 18.8431 13.1387 20.5 13.1387Z" stroke="#F5F7F7" stroke-width="2" stroke-linecap="round" stroke-linejoin="round"/>
<path d="M17.9765 11.7607L12.5229 15.2666" stroke="#F5F7F7" stroke-width="2" stroke-linecap="round" stroke-linejoin="round"/>
<path d="M12.5229 18.5107L17.9765 22.0166" stroke="#F5F7F7" stroke-width="2" stroke-linecap="round" stroke-linejoin="round"/>
</g>
<defs>
<clipPath id="clip0">
<rect width="24" height="24" fill="white" transform="translate(4 4.88867)"/>
</clipPath>
</defs>
</svg>
