<svg width="16" height="16" viewBox="0 0 16 16" fill="none" xmlns="http://www.w3.org/2000/svg">
<mask id="mask0_158_556" style="mask-type:alpha" maskUnits="userSpaceOnUse" x="0" y="0" width="16" height="16">
<rect width="16" height="16" fill="#D9D9D9"/>
</mask>
<g mask="url(#mask0_158_556)">
<path d="M9.66667 12C9.2 12 8.80556 11.8389 8.48333 11.5167C8.16111 11.1944 8 10.8 8 10.3333C8 9.86667 8.16111 9.47222 8.48333 9.15C8.80556 8.82778 9.2 8.66667 9.66667 8.66667C10.1333 8.66667 10.5278 8.82778 10.85 9.15C11.1722 9.47222 11.3333 9.86667 11.3333 10.3333C11.3333 10.8 11.1722 11.1944 10.85 11.5167C10.5278 11.8389 10.1333 12 9.66667 12ZM3.33333 14.6667C2.96667 14.6667 2.65278 14.5361 2.39167 14.275C2.13056 14.0139 2 13.7 2 13.3333V4C2 3.63334 2.13056 3.31945 2.39167 3.05834C2.65278 2.79722 2.96667 2.66667 3.33333 2.66667H4V2C4 1.81111 4.06389 1.65278 4.19167 1.525C4.31944 1.39722 4.47778 1.33334 4.66667 1.33334C4.85556 1.33334 5.01389 1.39722 5.14167 1.525C5.26944 1.65278 5.33333 1.81111 5.33333 2V2.66667H10.6667V2C10.6667 1.81111 10.7306 1.65278 10.8583 1.525C10.9861 1.39722 11.1444 1.33334 11.3333 1.33334C11.5222 1.33334 11.6806 1.39722 11.8083 1.525C11.9361 1.65278 12 1.81111 12 2V2.66667H12.6667C13.0333 2.66667 13.3472 2.79722 13.6083 3.05834C13.8694 3.31945 14 3.63334 14 4V13.3333C14 13.7 13.8694 14.0139 13.6083 14.275C13.3472 14.5361 13.0333 14.6667 12.6667 14.6667H3.33333ZM3.33333 13.3333H12.6667V6.66667H3.33333V13.3333Z" fill="#79767D"/>
</g>
</svg>
