<svg width="48" height="49" viewBox="0 0 48 49" fill="none" xmlns="http://www.w3.org/2000/svg">
<g clip-path="url(#clip0)">
<path d="M24 48.8887C37.2548 48.8887 48 38.1435 48 24.8887C48 11.6338 37.2548 0.888672 24 0.888672C10.7452 0.888672 0 11.6338 0 24.8887C0 38.1435 10.7452 48.8887 24 48.8887Z" fill="#4E71A8"/>
<path d="M29.9001 20.3885H25.9001V17.7885C25.9001 16.7885 26.6001 16.5885 27.0001 16.5885C27.5001 16.5885 29.8001 16.5885 29.8001 16.5885V12.1885H25.9001C21.5001 12.1885 20.6001 15.4885 20.6001 17.4885V20.3885H18.1001V24.8885H20.6001C20.6001 30.6885 20.6001 37.5885 20.6001 37.5885H25.9001C25.9001 37.5885 25.9001 30.5885 25.9001 24.8885H29.5001L29.9001 20.3885Z" fill="white"/>
</g>
<defs>
<clipPath id="clip0">
<rect width="48" height="48" fill="white" transform="translate(0 0.888672)"/>
</clipPath>
</defs>
</svg>
