<svg width="48" height="49" viewBox="0 0 48 49" fill="none" xmlns="http://www.w3.org/2000/svg">
<g clip-path="url(#clip0)">
<path d="M24 48.8887C37.2548 48.8887 48 38.1435 48 24.8887C48 11.6338 37.2548 0.888672 24 0.888672C10.7452 0.888672 0 11.6338 0 24.8887C0 38.1435 10.7452 48.8887 24 48.8887Z" fill="#1686B0"/>
<path d="M17.4001 35.7887H12.8001V20.9887H17.4001V35.7887ZM14.9001 19.0887C13.2001 19.0887 12.1001 17.9887 12.1001 16.4887C12.1001 14.9887 13.2001 13.8887 14.9001 13.8887C16.6001 13.8887 17.7001 14.9887 17.7001 16.4887C17.7001 17.9887 16.7001 19.0887 14.9001 19.0887ZM35.9001 35.7887H30.6001V28.0887C30.6001 26.0887 29.8001 24.6887 28.0001 24.6887C26.6001 24.6887 25.9001 25.5887 25.5001 26.4887C25.4001 26.7887 25.4001 27.2887 25.4001 27.6887V35.6887H20.2001C20.2001 35.6887 20.3001 22.0887 20.2001 20.8887H25.4001V23.1887C25.7001 22.1887 27.4001 20.6887 30.0001 20.6887C33.3001 20.6887 35.9001 22.7887 35.9001 27.3887V35.7887Z" fill="white"/>
</g>
<defs>
<clipPath id="clip0">
<rect width="48" height="48" fill="white" transform="translate(0 0.888672)"/>
</clipPath>
</defs>
</svg>
