<svg width="48" height="49" viewBox="0 0 48 49" fill="none" xmlns="http://www.w3.org/2000/svg">
<g clip-path="url(#clip0)">
<path d="M24 48.8887C37.2548 48.8887 48 38.1435 48 24.8887C48 11.6338 37.2548 0.888672 24 0.888672C10.7452 0.888672 0 11.6338 0 24.8887C0 38.1435 10.7452 48.8887 24 48.8887Z" fill="#CA3737"/>
<path d="M24.0001 12.9883C17.4001 12.9883 12.1001 18.2883 12.1001 24.8883C12.1001 29.7883 15.0001 33.8883 19.2001 35.7883C19.2001 34.9883 19.2001 33.9883 19.4001 33.0883C19.6001 32.0883 20.9001 26.5883 20.9001 26.5883C20.9001 26.5883 20.5001 25.7883 20.5001 24.6883C20.5001 22.8883 21.5001 21.5883 22.8001 21.5883C23.9001 21.5883 24.4001 22.3883 24.4001 23.3883C24.4001 24.4883 23.7001 26.0883 23.4001 27.5883C23.1001 28.8883 24.1001 29.8883 25.3001 29.8883C27.6001 29.8883 29.1001 26.9883 29.1001 23.5883C29.1001 20.9883 27.3001 19.0883 24.2001 19.0883C20.6001 19.0883 18.4001 21.7883 18.4001 24.7883C18.4001 25.7883 18.7001 26.5883 19.2001 27.0883C19.4001 27.3883 19.5001 27.4883 19.4001 27.7883C19.3001 27.9883 19.2001 28.4883 19.2001 28.7883C19.1001 29.0883 18.9001 29.1883 18.6001 29.0883C16.9001 28.3883 16.2001 26.5883 16.2001 24.5883C16.2001 21.1883 19.0001 17.1883 24.7001 17.1883C29.2001 17.1883 32.2001 20.4883 32.2001 23.9883C32.2001 28.6883 29.6001 32.0883 25.8001 32.0883C24.5001 32.0883 23.3001 31.3883 22.9001 30.5883C22.9001 30.5883 22.2001 33.2883 22.1001 33.8883C21.8001 34.7883 21.4001 35.6883 20.9001 36.3883C22.0001 36.6883 23.1001 36.8883 24.3001 36.8883C30.9001 36.8883 36.2001 31.5883 36.2001 24.9883C35.9001 18.2883 30.6001 12.9883 24.0001 12.9883Z" fill="white"/>
</g>
<defs>
<clipPath id="clip0">
<rect width="48" height="48" fill="white" transform="translate(0 0.888672)"/>
</clipPath>
</defs>
</svg>
