<svg width="48" height="49" viewBox="0 0 48 49" fill="none" xmlns="http://www.w3.org/2000/svg">
<g clip-path="url(#clip0)">
<path d="M47.9692 24.8818C47.9692 38.1367 37.2241 48.8818 23.9692 48.8818C10.7144 48.8818 -0.0307617 38.1367 -0.0307617 24.8818C-0.0307617 11.627 10.7144 0.881836 23.9692 0.881836C37.2241 0.881836 47.9692 11.627 47.9692 24.8818Z" fill="#3D5A70"/>
<path d="M13.4932 16.0502V22.3995H16.6686V31.9251C16.9194 39.7155 21.2007 41.3382 26.1939 41.875C29.096 41.7305 32.6516 40.6545 34.4488 39.2276V33.8305C32.1369 36.0779 25.9316 38.2808 24.818 31.9254L24.7111 22.2953L34.5064 22.2918L34.4486 15.9455H24.7111L24.7184 7.90671L21.0083 7.90137C21.2767 14.8515 17.5827 15.7824 13.4932 16.0502Z" fill="white"/>
</g>
<defs>
<clipPath id="clip0">
<rect width="48" height="48" fill="white" transform="translate(0 0.888672)"/>
</clipPath>
</defs>
</svg>
