<svg width="48" height="49" viewBox="0 0 48 49" fill="none" xmlns="http://www.w3.org/2000/svg">
<g clip-path="url(#clip0)">
<path d="M24 48.8887C37.2548 48.8887 48 38.1435 48 24.8887C48 11.6338 37.2548 0.888672 24 0.888672C10.7452 0.888672 0 11.6338 0 24.8887C0 38.1435 10.7452 48.8887 24 48.8887Z" fill="#1CB7EB"/>
<path d="M36.7999 16.2885C35.8999 16.7885 34.7999 17.0885 33.7999 17.1885C34.8999 16.4885 35.6999 15.3885 36.0999 14.0885C35.0999 14.6885 33.9999 15.1885 32.6999 15.4885C31.6999 14.3885 30.3999 13.6885 28.8999 13.6885C25.9999 13.6885 23.5999 16.1885 23.5999 19.3885C23.5999 19.7885 23.5999 20.2885 23.6999 20.6885C19.2999 20.4885 15.3999 18.1885 12.7999 14.7885C12.2999 15.5885 12.0999 16.5885 12.0999 17.6885C12.0999 19.6885 12.9999 21.3885 14.3999 22.3885C13.4999 22.3885 12.6999 22.0885 11.9999 21.6885V21.7885C11.9999 24.4885 13.7999 26.7885 16.1999 27.3885C15.7999 27.4885 15.2999 27.5885 14.7999 27.5885C14.4999 27.5885 14.0999 27.5885 13.7999 27.4885C14.4999 29.7885 16.3999 31.3885 18.6999 31.3885C16.8999 32.8885 14.5999 33.7885 12.1999 33.7885C11.7999 33.7885 11.3999 33.7885 10.8999 33.6885C13.1999 35.2885 15.9999 36.2885 18.9999 36.2885C28.6999 36.2885 33.9999 27.6885 33.9999 20.1885C33.9999 19.9885 33.9999 19.6885 33.9999 19.4885C35.1999 18.4885 36.0999 17.4885 36.7999 16.2885Z" fill="white"/>
</g>
<defs>
<clipPath id="clip0">
<rect width="48" height="48" fill="white" transform="translate(0 0.888672)"/>
</clipPath>
</defs>
</svg>
