<svg width="16" height="16" viewBox="0 0 16 16" fill="none" xmlns="http://www.w3.org/2000/svg">
<g clip-path="url(#clip0_158_277)">
<path d="M16 8C16 9.60748 16 10.6916 15.9626 11.2897C15.8879 12.7477 15.4766 13.8692 14.6542 14.6542C13.8318 15.4393 12.7477 15.8878 11.2897 15.9626C10.6916 16 9.57009 16 8 16C6.39252 16 5.30841 16 4.71028 15.9626C3.25234 15.8878 2.13084 15.4766 1.34579 14.6542C0.560748 13.8692 0.112149 12.7477 0.0373831 11.2897C-3.62084e-08 10.6916 0 9.57009 0 8C0 6.42991 -3.62084e-08 5.30841 0.0373831 4.71028C0.112149 3.25234 0.523364 2.13084 1.34579 1.34579C2.13084 0.560748 3.25234 0.112149 4.71028 0.0373831C5.30841 -3.62084e-08 6.42991 0 8 0C9.60748 0 10.6916 -3.62084e-08 11.2897 0.0373831C12.7477 0.112149 13.8692 0.523364 14.6542 1.34579C15.4393 2.16822 15.8879 3.25234 15.9626 4.71028C15.9626 5.30841 16 6.39252 16 8ZM8.78505 1.42056C8.29907 1.42056 8.03738 1.42056 8 1.42056C7.96262 1.42056 7.70093 1.42056 7.21495 1.42056C6.72897 1.42056 6.35514 1.42056 6.13084 1.42056C5.86916 1.42056 5.53271 1.42056 5.1215 1.45794C4.71028 1.45794 4.33645 1.49533 4.03738 1.57009C3.73832 1.60748 3.47664 1.68224 3.28972 1.75701C2.95327 1.90654 2.65421 2.09346 2.35514 2.35514C2.09346 2.61682 1.90654 2.91589 1.75701 3.28972C1.68224 3.47664 1.60748 3.73832 1.57009 4.03738C1.53271 4.33645 1.49533 4.6729 1.45794 5.1215C1.45794 5.53271 1.42056 5.86916 1.42056 6.13084C1.42056 6.39252 1.42056 6.76636 1.42056 7.21495C1.42056 7.70093 1.42056 7.96262 1.42056 8C1.42056 8.03738 1.42056 8.29907 1.42056 8.78505C1.42056 9.27103 1.42056 9.64486 1.42056 9.86916C1.42056 10.1308 1.42056 10.4673 1.45794 10.8785C1.45794 11.2897 1.49533 11.6636 1.57009 11.9626C1.64486 12.2617 1.68224 12.5234 1.75701 12.7103C1.90654 13.0467 2.09346 13.3458 2.35514 13.6449C2.61682 13.9065 2.91589 14.0935 3.28972 14.243C3.47664 14.3178 3.73832 14.3925 4.03738 14.4299C4.33645 14.4673 4.6729 14.5047 5.1215 14.5421C5.57009 14.5794 5.86916 14.5794 6.13084 14.5794C6.39252 14.5794 6.76636 14.5794 7.21495 14.5794C7.70093 14.5794 7.96262 14.5794 8 14.5794C8.03738 14.5794 8.29907 14.5794 8.78505 14.5794C9.27103 14.5794 9.64486 14.5794 9.86916 14.5794C10.1308 14.5794 10.4673 14.5794 10.8785 14.5421C11.2897 14.5421 11.6636 14.5047 11.9626 14.4299C12.2617 14.3925 12.5234 14.3178 12.7103 14.243C13.0467 14.0935 13.3458 13.9065 13.6449 13.6449C13.9065 13.3832 14.0935 13.0841 14.243 12.7103C14.3178 12.5234 14.3925 12.2617 14.4299 11.9626C14.4673 11.6636 14.5047 11.3271 14.5421 10.8785C14.5421 10.4673 14.5794 10.1308 14.5794 9.86916C14.5794 9.60748 14.5794 9.23364 14.5794 8.78505C14.5794 8.29907 14.5794 8.03738 14.5794 8C14.5794 7.96262 14.5794 7.70093 14.5794 7.21495C14.5794 6.72897 14.5794 6.35514 14.5794 6.13084C14.5794 5.86916 14.5794 5.53271 14.5421 5.1215C14.5421 4.71028 14.5047 4.33645 14.4299 4.03738C14.3925 3.73832 14.3178 3.47664 14.243 3.28972C14.0935 2.95327 13.9065 2.65421 13.6449 2.35514C13.3832 2.09346 13.0841 1.90654 12.7103 1.75701C12.5234 1.68224 12.2617 1.60748 11.9626 1.57009C11.6636 1.53271 11.3271 1.49533 10.8785 1.45794C10.4673 1.45794 10.1308 1.42056 9.86916 1.42056C9.64486 1.42056 9.27103 1.42056 8.78505 1.42056ZM10.8785 5.08411C11.6636 5.86916 12.0748 6.84112 12.0748 8C12.0748 9.15888 11.6636 10.0935 10.8785 10.9159C10.0935 11.7009 9.1215 12.1121 7.96262 12.1121C6.80374 12.1121 5.86916 11.7009 5.04673 10.9159C4.26168 10.1308 3.85047 9.15888 3.85047 8C3.85047 6.84112 4.26168 5.90654 5.04673 5.08411C5.83178 4.29907 6.80374 3.88785 7.96262 3.88785C9.1215 3.88785 10.0935 4.26168 10.8785 5.08411ZM9.86916 9.86916C10.3925 9.34579 10.6542 8.71028 10.6542 8C10.6542 7.28972 10.3925 6.61682 9.86916 6.09346C9.34579 5.57009 8.71028 5.30841 7.96262 5.30841C7.21495 5.30841 6.57944 5.57009 6.05608 6.09346C5.53271 6.61682 5.27103 7.25234 5.27103 8C5.27103 8.74766 5.53271 9.38318 6.05608 9.86916C6.57944 10.3925 7.21495 10.6542 7.96262 10.6542C8.71028 10.6542 9.34579 10.3925 9.86916 9.86916ZM12.9346 3.02804C13.1215 3.21495 13.2336 3.43925 13.2336 3.70093C13.2336 3.96262 13.1215 4.18692 12.9346 4.37383C12.7477 4.56075 12.5234 4.6729 12.2617 4.6729C12 4.6729 11.7757 4.56075 11.5888 4.37383C11.4019 4.18692 11.2897 3.96262 11.2897 3.70093C11.2897 3.43925 11.4019 3.21495 11.5888 3.02804C11.7757 2.84112 12 2.72897 12.2617 2.72897C12.5234 2.72897 12.7477 2.84112 12.9346 3.02804Z" fill="#79767D"/>
</g>
<defs>
<clipPath id="clip0_158_277">
<rect width="16" height="16" fill="white"/>
</clipPath>
</defs>
</svg>
